<svg xmlns="http://www.w3.org/2000/svg" viewBox="0 0 38.8 52.2"><defs><style>.cls-1{fill:#59595c;}</style></defs><title>Asset 36</title><g id="Layer_2" data-name="Layer 2"><g id="Content"><path class="cls-1" d="M16.4,27.6l5-10.1h-6V15.3h9v1.2L19,27.6Z"/><path class="cls-1" d="M8.4,48a3.9,3.9,0,0,1-3.6,4.2H4.3A3.9,3.9,0,0,1,.2,48.1a4.1,4.1,0,1,1,8.3,0ZM1.6,48a2.6,2.6,0,1,0,2.6-2.7A2.7,2.7,0,0,0,1.6,48Z"/><path class="cls-1" d="M11.1,45.3H8.6V43.9h6.6v1.4H12.7V52H11.1Z"/><path class="cls-1" d="M21.6,52V48.7h-4V52H16.1V44h1.5v3.4h4V43.9h1.5v8Z"/><path class="cls-1" d="M30.5,51.9h-6v-8h6v1.5H26v1.8h4.4v1.4H26v1.8h4.5Z"/><path class="cls-1" d="M38.8,51.9H37l-2.3-2.7H33.2v2.7H31.7v-8h3.8a2.7,2.7,0,0,1,2.9,2.5v.2a2.4,2.4,0,0,1-2,2.5l2.4,2.7Zm-5.6-6.6v2.6h2.3a1.3,1.3,0,1,0,0-2.6H33.2Z"/><path class="cls-1" d="M36.9,26,30.6,15l-1.5.9,6.3,11c1.1,1.9,1.3,3.7.6,4.9a3.7,3.7,0,0,1-3.4,1.5H30.2V30.9L24.8,34l5.4,3.1v-2h2.4c2.3,0,4-.8,4.9-2.4A6.9,6.9,0,0,0,36.9,26Z"/><path class="cls-1" d="M15.5,4.8c1.1-1.9,2.6-3.1,3.9-3.1a3.4,3.4,0,0,1,2.8,2l1.2,2L21.5,6.8l5.4,3.1V3.8L25,4.9l-1.2-2A5.1,5.1,0,0,0,19.5,0c-2,0-4,1.4-5.4,3.9l-6,10.3,1.5.9Z"/><path class="cls-1" d="M2.1,31.4a4,4,0,0,1,.4-3.8l1-1.6.5-.8,1.9,1.1V20.1L.5,23.2l1.9,1.1-.4.8L1,26.8a5.4,5.4,0,0,0-.4,5.6c.9,1.6,3.2,2.8,6,2.8H18.7V33.3H6.6C4.4,33.2,2.8,32.6,2.1,31.4Z"/></g></g></svg>