<svg xmlns="http://www.w3.org/2000/svg" viewBox="0 0 38.1 52"><defs><style>.cls-1{fill:#59595c;}</style></defs><title>Asset 30</title><g id="Layer_2" data-name="Layer 2"><g id="Content"><path class="cls-1" d="M16.2,25.6h1.9V17.4H16.2V15.3h4.2V25.6h1.7v2H16.2Z"/><path class="cls-1" d="M8.2,49.6H5.9V52H4.4V44H8.2c2,0,3.6.8,3.6,2.8S10.2,50.4,8.2,49.6ZM5.9,48.2H8.2a1.4,1.4,0,0,0,0-2.8H5.9Z"/><path class="cls-1" d="M18.2,51.9h-6v-8h6v1.5H13.7v1.8h4.4v1.4H13.7v1.8h4.5Z"/><path class="cls-1" d="M21.9,45.3H19.4V43.9H26v1.4H23.4V52H21.9Z"/><path class="cls-1" d="M32.9,51.9h-6v-8h6v1.5H28.4v1.8h4.4v1.4H28.4v1.8h4.5Z"/><path class="cls-1" d="M36.9,26,30.6,15l-1.5.9,6.3,11c1.1,1.9,1.3,3.7.6,4.9a3.7,3.7,0,0,1-3.4,1.5H30.2V30.9L24.8,34l5.4,3.1v-2h2.4c2.3,0,4-.8,4.9-2.4A6.9,6.9,0,0,0,36.9,26Z"/><path class="cls-1" d="M15.5,4.8c1.1-1.9,2.6-3.1,3.9-3.1a3.4,3.4,0,0,1,2.8,2l1.2,2L21.5,6.8l5.4,3.1V3.8L25,4.9l-1.2-2A5.1,5.1,0,0,0,19.5,0c-2,0-4,1.4-5.4,3.9l-6,10.3,1.5.9Z"/><path class="cls-1" d="M2.1,31.4a4,4,0,0,1,.4-3.8l1-1.6.5-.8,1.9,1.1V20.1L.5,23.2l1.9,1.1-.4.8L1,26.8a5.4,5.4,0,0,0-.4,5.6c.9,1.6,3.2,2.8,6,2.8H18.7V33.3H6.6C4.4,33.2,2.8,32.6,2.1,31.4Z"/></g></g></svg>