<svg xmlns="http://www.w3.org/2000/svg" viewBox="0 0 38.1 52.2"><defs><style>.cls-1{fill:#59595c;}</style></defs><title>Asset 35</title><g id="Layer_2" data-name="Layer 2"><g id="Content"><path class="cls-1" d="M16.9,19.1v1.8a3.6,3.6,0,0,1,2.8-1.3c2.5,0,5.1,1,5.1,4.1s-2.6,4.1-5.1,4.1-5.1-1.4-5.1-4.1V19.1c0-2.7,2.5-4,5.1-4s5,1.1,5,3.6H22.3c0-1.1-1.4-1.6-2.7-1.6s-2.8.7-2.8,2.1Zm5.6,4.6c0-1.4-1.2-2.1-2.8-2.1s-2.9.7-2.8,2.1,1.3,2,2.8,2S22.5,25,22.5,23.7Z"/><path class="cls-1" d="M16.2,49.6H13.9V52H12.4V44h3.8a2.8,2.8,0,0,1,0,5.6Zm-2.3-1.4h2.3a1.4,1.4,0,0,0,0-2.8H13.9Z"/><path class="cls-1" d="M25.2,45.8a2.3,2.3,0,0,0-1.9-.9c-1.1,0-1.7.5-1.7,1.1s.8.9,1.8,1,3.2.6,3.2,2.6-1.6,2.6-3.4,2.6-2.9-.5-3.5-2l1.3-.7a2.3,2.3,0,0,0,2.3,1.3c1,0,1.8-.3,1.8-1.2s-.8-1.1-1.9-1.2-3.1-.6-3.1-2.4,1.6-2.3,3.1-2.3a3.3,3.3,0,0,1,3.2,1.6Z"/><path class="cls-1" d="M36.9,26,30.6,15l-1.5.9,6.3,11c1.1,1.9,1.3,3.7.6,4.9a3.7,3.7,0,0,1-3.4,1.5H30.2V30.9L24.8,34l5.4,3.1v-2h2.4c2.3,0,4-.8,4.9-2.4A6.9,6.9,0,0,0,36.9,26Z"/><path class="cls-1" d="M15.5,4.8c1.1-1.9,2.6-3.1,3.9-3.1a3.4,3.4,0,0,1,2.8,2l1.2,2L21.5,6.8l5.4,3.1V3.8L25,4.9l-1.2-2A5.1,5.1,0,0,0,19.5,0c-2,0-4,1.4-5.4,3.9l-6,10.3,1.5.9Z"/><path class="cls-1" d="M2.1,31.4a4,4,0,0,1,.4-3.8l1-1.6.5-.8,1.9,1.1V20.1L.5,23.2l1.9,1.1-.4.8L1,26.8a5.4,5.4,0,0,0-.4,5.6c.9,1.6,3.2,2.8,6,2.8H18.7V33.3H6.6C4.4,33.2,2.8,32.6,2.1,31.4Z"/></g></g></svg>