<svg xmlns="http://www.w3.org/2000/svg" viewBox="0 0 38.1 52"><defs><style>.cls-1{fill:#59595c;}</style></defs><title>Asset 31</title><g id="Layer_2" data-name="Layer 2"><g id="Content"><path class="cls-1" d="M14.8,18.8c0-2.6,2.5-3.7,4.7-3.7s5.1,1,5.1,3.9-2.4,3.7-4.9,3.7c-1,0-2.7.3-2.7,1.6v1.1h7.6v2.2H14.7V24.3c0-2.8,2.6-3.7,5-3.7s2.6-.2,2.6-1.6-1.2-2-2.8-2-2.5.6-2.5,1.7Z"/><path class="cls-1" d="M9.9,52V48.7h-4V52H4.4V44H5.9v3.4h4V43.9h1.5v8Z"/><path class="cls-1" d="M19.9,47.9A3.8,3.8,0,0,1,16.4,52H12.7V44h3.2a3.8,3.8,0,0,1,4,3.6Q19.9,47.7,19.9,47.9Zm-5.7,2.6h1.7a2.6,2.6,0,0,0,0-5.1H14.2Z"/><path class="cls-1" d="M24.7,49.6H22.4V52H20.9V44h3.8a2.8,2.8,0,0,1,0,5.6Zm-2.3-1.4h2.3a1.4,1.4,0,0,0,0-2.8H22.4Z"/><path class="cls-1" d="M34.7,51.9h-6v-8h6v1.5H30.2v1.8h4.4v1.4H30.2v1.8h4.5Z"/><path class="cls-1" d="M36.9,26,30.6,15l-1.5.9,6.3,11c1.1,1.9,1.3,3.7.6,4.9a3.7,3.7,0,0,1-3.4,1.5H30.2V30.9L24.8,34l5.4,3.1v-2h2.4c2.3,0,4-.8,4.9-2.4A6.9,6.9,0,0,0,36.9,26Z"/><path class="cls-1" d="M15.5,4.8c1.1-1.9,2.6-3.1,3.9-3.1a3.4,3.4,0,0,1,2.8,2l1.2,2L21.5,6.8l5.4,3.1V3.8L25,4.9l-1.2-2A5.1,5.1,0,0,0,19.5,0c-2,0-4,1.4-5.4,3.9l-6,10.3,1.5.9Z"/><path class="cls-1" d="M2.1,31.4a4,4,0,0,1,.4-3.8l1-1.6.5-.8,1.9,1.1V20.1L.5,23.2l1.9,1.1-.4.8L1,26.8a5.4,5.4,0,0,0-.4,5.6c.9,1.6,3.2,2.8,6,2.8H18.7V33.3H6.6C4.4,33.2,2.8,32.6,2.1,31.4Z"/></g></g></svg>