<svg xmlns="http://www.w3.org/2000/svg" viewBox="0 0 38.1 51.9"><defs><style>.cls-1{fill:#59595c;}</style></defs><title>Asset 33</title><g id="Layer_2" data-name="Layer 2"><g id="Content"><path class="cls-1" d="M21.7,15.3V23h1.4v2.2H21.7v2.3H19.4V25.2H12.8l-.2-2.4,5.5-7.5ZM19.4,23V17.3L15.2,23Z"/><path class="cls-1" d="M6,43.9v6.6h4.1v1.4H4.5v-8Z"/><path class="cls-1" d="M18.2,47.8a3.8,3.8,0,0,1-4,4.1H11.1v-8h3.2A3.8,3.8,0,0,1,18.2,47.8Zm-5.7,2.6h1.7a2.6,2.6,0,0,0,0-5.1H12.6Z"/><path class="cls-1" d="M23,49.5H20.8v2.4H19.2v-8H23A2.8,2.8,0,1,1,23,49.5Zm-2.3-1.4H23a1.4,1.4,0,1,0,0-2.8H20.8Z"/><path class="cls-1" d="M33,51.9H27v-8h6v1.5H28.5v1.8h4.3v1.4H28.5v1.8H33Z"/><path class="cls-1" d="M36.9,26,30.6,15l-1.5.9,6.3,11c1.1,1.9,1.3,3.7.6,4.9a3.7,3.7,0,0,1-3.4,1.5H30.2V30.9L24.8,34l5.4,3.1v-2h2.4c2.3,0,4-.8,4.9-2.4A6.9,6.9,0,0,0,36.9,26Z"/><path class="cls-1" d="M15.5,4.8c1.1-1.9,2.6-3.1,3.9-3.1a3.4,3.4,0,0,1,2.8,2l1.2,2L21.5,6.8l5.4,3.1V3.8L25,4.9l-1.2-2A5.1,5.1,0,0,0,19.5,0c-2,0-4,1.4-5.4,3.9l-6,10.3,1.5.9Z"/><path class="cls-1" d="M2.1,31.4a4,4,0,0,1,.4-3.8l1-1.6.5-.8,1.9,1.1V20.1L.5,23.2l1.9,1.1-.4.8L1,26.8a5.4,5.4,0,0,0-.4,5.6c.9,1.6,3.2,2.8,6,2.8H18.7V33.3H6.6C4.4,33.2,2.8,32.6,2.1,31.4Z"/></g></g></svg>