<svg xmlns="http://www.w3.org/2000/svg" viewBox="0 0 38.1 52.1"><defs><style>.cls-1{fill:#59595c;}</style></defs><title>Asset 32</title><g id="Layer_2" data-name="Layer 2"><g id="Content"><path class="cls-1" d="M17.5,22.2V20.3h1.8c1.2,0,2.6-.3,2.6-1.5s-.6-1.6-2.5-1.6-2.6.4-2.6,1.5H14.5c0-2.7,2.6-3.6,4.9-3.6s4.8,1.1,4.8,3.7a2.6,2.6,0,0,1-1.7,2.4,2.9,2.9,0,0,1,2,2.6c0,3-2.8,3.9-5.2,3.9s-5-1-5-3.8h2.3c0,1.3,1.7,1.7,2.7,1.7s2.7-.5,2.7-1.8-.4-1.6-2.6-1.6Z"/><path class="cls-1" d="M11.2,49.6H8.9V52H7.4V44h3.8a2.8,2.8,0,0,1,0,5.6ZM8.9,48.2h2.3a1.4,1.4,0,0,0,0-2.8H8.9Z"/><path class="cls-1" d="M19.6,52H18l-3.3-8.1h1.7l2.4,6.3,2.4-6.3h1.7Z"/><path class="cls-1" d="M30.9,50.9a4.2,4.2,0,0,1-3.1,1.2,4.2,4.2,0,0,1-.5-8.3h.5a4.2,4.2,0,0,1,3,1.2l-1,1a2.8,2.8,0,0,0-1.9-.8,2.8,2.8,0,0,0-.3,5.5h.3a3,3,0,0,0,2-.8Z"/><path class="cls-1" d="M36.9,26,30.6,15l-1.5.9,6.3,11c1.1,1.9,1.3,3.7.6,4.9a3.7,3.7,0,0,1-3.4,1.5H30.2V30.9L24.8,34l5.4,3.1v-2h2.4c2.3,0,4-.8,4.9-2.4A6.9,6.9,0,0,0,36.9,26Z"/><path class="cls-1" d="M15.5,4.8c1.1-1.9,2.6-3.1,3.9-3.1a3.4,3.4,0,0,1,2.8,2l1.2,2L21.5,6.8l5.4,3.1V3.8L25,4.9l-1.2-2A5.1,5.1,0,0,0,19.5,0c-2,0-4,1.4-5.4,3.9l-6,10.3,1.5.9Z"/><path class="cls-1" d="M2.1,31.4a4,4,0,0,1,.4-3.8l1-1.6.5-.8,1.9,1.1V20.1L.5,23.2l1.9,1.1-.4.8L1,26.8a5.4,5.4,0,0,0-.4,5.6c.9,1.6,3.2,2.8,6,2.8H18.7V33.3H6.6C4.4,33.2,2.8,32.6,2.1,31.4Z"/></g></g></svg>